<svg width="12" height="14" viewBox="0 0 12 14" fill="none" xmlns="http://www.w3.org/2000/svg">
<g id="vuesax/bold/location">
<path id="Vector" d="M11.831 4.36274C11.1211 1.3544 8.39663 0 6.00338 0C6.00338 0 6.00338 0 5.99662 0C3.61013 0 0.878861 1.34789 0.169 4.35623C-0.621988 7.71619 1.51436 10.5617 3.44788 12.3524C4.1645 13.0166 5.08394 14 6.00338 14C6.92282 14 7.84226 13.0166 8.55212 12.3524C10.4856 10.5617 12.622 7.7227 11.831 4.36274ZM6.00338 7.62503C4.82704 7.62503 3.8738 6.7069 3.8738 5.57389C3.8738 4.44088 4.82704 3.52275 6.00338 3.52275C7.17972 3.52275 8.13296 4.44088 8.13296 5.57389C8.13296 6.7069 7.17972 7.62503 6.00338 7.62503Z" fill="#0575FC"/>
</g>
</svg>
