<svg width="16" height="13" viewBox="0 0 16 13" fill="none" xmlns="http://www.w3.org/2000/svg">
<g id="cart-shopping-fast-sharp-solid 1" clip-path="url(#clip0_104_4298)">
<path id="Vector" d="M1.6 0H2.2H4H4.4975L4.59 0.490885L4.65 0.805556H16L14 7.25H5.8675L6.095 8.45833H13.8H14.4V9.66667H13.8H5.6H5.1025L5.01 9.17578L3.5025 1.20833H2.2H1.6V0ZM4.8 11.6806C4.8 11.3601 4.92643 11.0527 5.15147 10.8261C5.37652 10.5995 5.68174 10.4722 6 10.4722C6.31826 10.4722 6.62348 10.5995 6.84853 10.8261C7.07357 11.0527 7.2 11.3601 7.2 11.6806C7.2 12.001 7.07357 12.3084 6.84853 12.535C6.62348 12.7616 6.31826 12.8889 6 12.8889C5.68174 12.8889 5.37652 12.7616 5.15147 12.535C4.92643 12.3084 4.8 12.001 4.8 11.6806ZM13.2 10.4722C13.5183 10.4722 13.8235 10.5995 14.0485 10.8261C14.2736 11.0527 14.4 11.3601 14.4 11.6806C14.4 12.001 14.2736 12.3084 14.0485 12.535C13.8235 12.7616 13.5183 12.8889 13.2 12.8889C12.8817 12.8889 12.5765 12.7616 12.3515 12.535C12.1264 12.3084 12 12.001 12 11.6806C12 11.3601 12.1264 11.0527 12.3515 10.8261C12.5765 10.5995 12.8817 10.4722 13.2 10.4722ZM0 3.625V2.41667H2.8V3.625H0ZM0 5.63889V4.43056H3.2V5.63889H0ZM0 7.65278V6.44444H3.6V7.65278H0Z" fill="white"/>
</g>
<defs>
<clipPath id="clip0_104_4298">
<rect width="16" height="12.8889" fill="white"/>
</clipPath>
</defs>
</svg>
